<svg width="30" height="29" viewBox="0 0 30 29" fill="none" xmlns="http://www.w3.org/2000/svg">
<g clip-path="url(#clip0)">
<path fill-rule="evenodd" clip-rule="evenodd" d="M17.3515 19.8591C20.2745 19.533 23.3833 18.5288 23.3833 13.7585C23.3833 12.4027 22.878 11.2978 22.055 10.444C22.1878 10.1179 22.6125 8.88752 21.8948 7.18051C21.8948 7.18051 20.832 6.85397 18.3347 8.43554C17.2719 8.15966 16.1029 7.98361 15.0135 7.98361C13.8971 7.98361 12.7277 8.15966 11.6914 8.43554C9.16705 6.85397 8.10428 7.18051 8.10428 7.18051C7.38703 8.88752 7.8123 10.1179 7.94502 10.444C7.12113 11.2977 6.61629 12.4027 6.61629 13.7585C6.61629 18.5288 9.7251 19.533 12.648 19.8591C12.2763 20.161 11.9308 20.7379 11.798 21.5414C11.0538 21.8425 9.11397 22.4202 7.94502 20.5121C7.94502 20.5121 7.25391 19.3323 5.95213 19.2571C5.95213 19.2571 4.64994 19.232 5.8459 20.0096C5.8459 20.0096 6.72246 20.3867 7.3074 21.8174C7.3074 21.8174 8.10428 24.2029 11.771 23.4495V25.5833C11.771 25.9103 11.5056 26.2866 10.8414 26.1863C5.63314 24.5541 1.88672 19.8841 1.88672 14.4112C1.88672 7.55681 7.75875 2.00859 15.0135 2.00859C22.2408 2.00859 28.1398 7.55687 28.1133 14.4112C28.1133 19.8841 24.3664 24.529 19.1585 26.1863C18.4939 26.3117 18.2285 25.9355 18.2285 25.5833V22.1443C18.2285 20.9887 17.8294 20.2362 17.3515 19.8591ZM30 14.4366C30 6.60274 23.2771 0.250916 15.0135 0.250916C6.72246 0.250916 0 6.60274 0 14.4366C0 22.2447 6.72246 28.5969 15.0135 28.5969C23.2771 28.5969 30 22.2447 30 14.4366Z" fill="#E2E2E2"/>
</g>
<defs>
<clipPath id="clip0">
<rect width="30" height="28.346" fill="white" transform="translate(0 0.250916)"/>
</clipPath>
</defs>
</svg>
